<svg version="1.1"
      xmlns="http://www.w3.org/2000/svg"
      xmlns:xlink="http://www.w3.org/1999/xlink"  id="snapshot-40112" width="250" height="250" viewBox="0 0 250 250"><desc>This image was made on Patterninja.com</desc><defs>
<!-- image 47624 -->
<g id="transformed-47624" data-image="47624" transform="translate(-65.50443162212699, -136.73023839957068) rotate(314, 89.50443162212699, 140.73023839957068)"><g><svg version="1.1" width="179.00886324425397px" height="281.46047679914136px" viewBox="0 0 179.00886324425397 281.46047679914136"><g id="original-47624"><svg xmlns="http://www.w3.org/2000/svg" fill="none" viewBox="0 0 72 113" xmlns:xlink="http://www.w3.org/1999/xlink" version="1.1" preserveAspectRatio="xMidYMid meet">
  <path d="M36.15 112.74c-6.79 0-12.546-1.261-17.267-3.783-4.656-2.522-8.213-6.079-10.67-10.67-2.457-4.657-3.686-10.154-3.686-16.491V39.987H22.57v42.197c0 2.78.517 5.206 1.552 7.275 1.099 2.07 2.651 3.654 4.656 4.753 2.005 1.1 4.462 1.65 7.372 1.65s5.368-.55 7.372-1.65c2.005-1.1 3.525-2.651 4.56-4.656 1.034-2.07 1.552-4.527 1.552-7.372V39.987h18.042v41.809c0 6.337-1.228 11.834-3.686 16.49-2.393 4.592-5.95 8.149-10.67 10.671-4.656 2.522-10.38 3.783-17.17 3.783z" fill="#FAC20F" stroke="none"/>
  <rect width="69.412" height="14.658" x="1.293" y="20.047" stroke-width="2.587" rx="7.329" fill="rgba(0, 0, 0, 0)" stroke="#FAC20F"/>
  <mask id="a" width="26" height="92" x="23" y="22" style="mask-type:alpha" maskUnits="userSpaceOnUse">
    <path stroke-width="1.293" d="M24.73 75.272L47.364 51.44a.216.216 0 0 0 .06-.148V40.635a.216.216 0 0 0-.372-.148l-22.634 23.83a.215.215 0 0 0-.06.15v10.656c0 .195.238.29.372.148z" fill="#FAC20F" stroke="#FAC20F"/>
    <path stroke-width="1.293" d="M24.73 57.595l22.635-23.831a.215.215 0 0 0 .059-.148V22.959a.216.216 0 0 0-.372-.149L24.418 46.641a.216.216 0 0 0-.06.149v10.657c0 .194.238.29.372.148z" fill="#FAC20F" stroke="#FAC20F"/>
    <path stroke-width="1.293" d="M24.73 93.163l22.634-23.83a.216.216 0 0 0 .06-.15V58.528a.216.216 0 0 0-.372-.149L24.418 82.21a.215.215 0 0 0-.06.148v10.657c0 .195.238.29.372.148z" fill="#FAC20F" stroke="#FAC20F"/>
    <path stroke-width="1.293" d="M24.73 112.348l22.634-23.83a.216.216 0 0 0 .06-.15V77.713a.216.216 0 0 0-.372-.149l-22.634 23.832a.215.215 0 0 0-.06.148V112.2c0 .195.238.29.372.148z" fill="#FAC20F" stroke="#FAC20F"/>
  </mask>
  <path d="M24.79 40.095h22.634v42.143c0 6.25-5.067 11.317-11.317 11.317S24.79 88.488 24.79 82.238V40.095z" mask="url(#a)" fill="#FAC20F" stroke="none"/>
  <path d="M4.527 15.952h63.16v-2.156C67.687 6.176 61.51 0 53.891 0H18.323C10.703 0 4.527 6.177 4.527 13.796v2.156z" fill="#FAC20F" stroke="none"/>
</svg>
</g></svg></g></g>
<!-- /image 47624 -->
</defs><rect x="0" y="0" width="250" height="250" fill="rgba(255, 255, 255, 0)"></rect><use xlink:href="#transformed-47624" transform="translate(-250, -250)"></use><use xlink:href="#transformed-47624" transform="translate(0, -250)"></use><use xlink:href="#transformed-47624" transform="translate(250, -250)"></use><use xlink:href="#transformed-47624" transform="translate(-250, 0)"></use><use xlink:href="#transformed-47624" transform="translate(0, 0)"></use><use xlink:href="#transformed-47624" transform="translate(250, 0)"></use><use xlink:href="#transformed-47624" transform="translate(-250, 250)"></use><use xlink:href="#transformed-47624" transform="translate(0, 250)"></use><use xlink:href="#transformed-47624" transform="translate(250, 250)"></use></svg>
