<svg width="373" height="114" viewBox="0 0 373 114" fill="none" xmlns="http://www.w3.org/2000/svg">
<path fill-rule="evenodd" clip-rule="evenodd" d="M272.607 110.8V70.0905L266.976 70.1007V70.099H262.923C258.978 70.099 255.906 72.675 253.708 74.8091C251.574 76.9432 250.507 80.015 250.507 84.0245V110.798H232.852V57.2514H246.82V76.1407C247.325 70.6956 248.812 66.2746 251.283 62.8776C254.451 58.6095 258.978 57.1221 264.863 57.1221H266.997V57.1247L290.261 57.2539V70.0584V110.8H272.607ZM279.882 52.9858C276.649 52.9858 274.256 52.1774 272.704 50.5607C271.216 48.8793 270.473 46.7452 270.473 44.1584C270.473 41.5716 271.216 39.4699 272.704 37.8532C274.256 36.1718 276.616 35.3311 279.785 35.3311C283.018 35.3311 285.379 36.1718 286.866 37.8532C288.354 39.4699 289.097 41.5716 289.097 44.1584C289.097 46.7452 288.354 48.8793 286.866 50.5607C285.379 52.1774 283.051 52.9858 279.882 52.9858ZM354.421 52.7916V110.8H372.075V52.7916V39.9871H354.421H348.406V52.7916H354.421ZM331.759 100.791V110.798H345.728V78.3014C345.728 73.3218 344.693 69.2153 342.624 65.9819C340.619 62.7484 337.677 60.3233 333.797 58.7066C329.981 57.0899 325.325 56.2815 319.828 56.2815C317.888 56.2815 315.754 56.3138 313.426 56.3785C311.162 56.4432 308.964 56.5402 306.829 56.6695C304.695 56.7988 302.852 56.9282 301.3 57.0575V71.8021C303.499 71.6728 305.924 71.5434 308.576 71.4141C311.227 71.2847 313.749 71.1877 316.142 71.1231C318.535 71.0584 320.345 71.0261 321.574 71.0261C324.161 71.0261 326.004 71.6404 327.103 72.8691C328.236 74.0023 328.818 75.7484 328.848 78.1074H320.41C315.56 78.1074 311.259 78.6894 307.508 79.8534C303.758 81.0175 300.815 82.8605 298.681 85.3826C296.547 87.8401 295.48 91.0735 295.48 95.083C295.48 98.6398 296.288 101.712 297.905 104.298C299.586 106.82 301.882 108.761 304.792 110.119C307.702 111.477 311.033 112.156 314.784 112.156C318.535 112.156 321.671 111.477 324.193 110.119C326.78 108.761 328.785 106.82 330.207 104.298C330.825 103.224 331.342 102.055 331.759 100.791ZM328.849 91.0089V87.2257H320.41C318.017 87.2257 316.174 87.8401 314.881 89.0688C313.587 90.2328 312.941 91.8172 312.941 93.822C312.941 95.762 313.587 97.3464 314.881 98.5752C316.174 99.7392 318.017 100.321 320.41 100.321C321.962 100.321 323.32 100.063 324.484 99.5452C325.713 98.9632 326.715 97.9931 327.491 96.6351C328.267 95.277 328.72 93.4016 328.849 91.0089ZM202.586 112.546C198.188 112.546 194.341 111.641 191.042 109.83C187.809 108.019 185.254 105.368 183.379 101.875C182.856 100.867 182.404 99.7945 182.021 98.6569V110.8H168.052V39.9871H185.707V65.3355C187.418 62.4433 189.616 60.2021 192.303 58.6118C195.537 56.6717 199.255 55.7017 203.459 55.7017C207.08 55.7017 210.346 56.3807 213.256 57.7388C216.166 59.0321 218.624 60.9075 220.629 63.365C222.698 65.7577 224.282 68.6032 225.382 71.9013C226.481 75.1994 227.031 78.8209 227.031 82.7657V85.0938C227.031 89.0387 226.481 92.6925 225.382 96.0553C224.282 99.3534 222.666 102.264 220.532 104.786C218.397 107.243 215.811 109.151 212.771 110.509C209.796 111.867 206.401 112.546 202.586 112.546ZM197.542 97.9953C199.87 97.9953 201.907 97.4133 203.653 96.2493C205.464 95.0206 206.854 93.3392 207.824 91.2051C208.859 89.071 209.376 86.6459 209.376 83.9298C209.376 81.149 208.859 78.7562 207.824 76.7515C206.854 74.6821 205.496 73.0977 203.75 71.9983C202.004 70.8343 199.934 70.2522 197.542 70.2522C195.408 70.2522 193.403 70.7373 191.527 71.7073C189.717 72.6773 188.229 74.1001 187.065 75.9755C185.901 77.8509 185.319 80.1143 185.319 82.7657V86.0639C185.319 88.586 185.934 90.7524 187.162 92.5631C188.391 94.3092 189.943 95.6672 191.818 96.6373C193.694 97.5426 195.602 97.9953 197.542 97.9953ZM76.0657 57.2514V110.798H93.7204V80.0473C93.7204 77.4606 94.3994 75.3588 95.7574 73.7421C97.1802 72.0607 99.1202 71.22 101.578 71.22C104.035 71.22 105.911 72.0607 107.204 73.7421C108.562 75.3588 109.241 77.3959 109.241 79.8533V110.798H126.896V80.0473C126.896 77.4606 127.575 75.3588 128.933 73.7421C130.355 72.0607 132.296 71.22 134.753 71.22C137.21 71.22 139.086 72.0607 140.379 73.7421C141.737 75.3588 142.416 77.3959 142.416 79.8533V110.798H160.071V80.3383C160.071 74.7768 159.327 70.1853 157.84 66.5638C156.417 62.8777 154.315 60.1292 151.535 58.3185C148.819 56.4431 145.456 55.5054 141.446 55.5054H140.67C136.725 55.5054 133.395 56.4431 130.679 58.3185C127.963 60.1292 125.893 62.8777 124.471 66.5638C124.455 66.6062 124.439 66.6487 124.423 66.6913C124.407 66.6487 124.39 66.6062 124.374 66.5638C123.016 62.8777 120.978 60.1292 118.262 58.3185C115.611 56.4431 112.28 55.5054 108.271 55.5054H107.495C103.55 55.5054 100.22 56.4431 97.5035 58.3185C94.7874 60.1292 92.718 62.8777 91.2953 66.5638C90.7754 67.9501 90.3551 69.4785 90.0342 71.149V57.2514H76.0657Z" fill="white"/>
<path d="M36.1501 112.74C29.3598 112.74 23.6043 111.479 18.8834 108.957C14.2272 106.435 10.6704 102.878 8.213 98.2863C5.75557 93.6302 4.52686 88.1333 4.52686 81.7957V39.9871H22.5696V82.1837C22.5696 84.9645 23.0869 87.3896 24.1216 89.459C25.221 91.5284 26.7731 93.1128 28.7778 94.2122C30.7826 95.3116 33.24 95.8612 36.1501 95.8612C39.0602 95.8612 41.5176 95.3116 43.5224 94.2122C45.5271 93.1128 47.0469 91.5607 48.0816 89.556C49.1163 87.4866 49.6336 85.0292 49.6336 82.1837V39.9871H67.6763V81.7957C67.6763 88.1333 66.4476 93.6302 63.9902 98.2863C61.5974 102.878 58.0406 106.435 53.3198 108.957C48.6636 111.479 42.9404 112.74 36.1501 112.74Z" fill="white"/>
<rect x="1.29338" y="20.0475" width="69.4116" height="14.6584" rx="7.32918" stroke="white" stroke-width="2.58677"/>
<mask id="mask0_37_26" style="mask-type:alpha" maskUnits="userSpaceOnUse" x="23" y="22" width="26" height="92">
<path d="M24.7305 75.2715L47.3647 51.4403C47.4028 51.4002 47.424 51.3471 47.424 51.2918V40.6349C47.424 40.4402 47.1862 40.3453 47.0521 40.4865L24.4179 64.3177C24.3799 64.3578 24.3586 64.4109 24.3586 64.4662V75.123C24.3586 75.3178 24.5964 75.4127 24.7305 75.2715Z" fill="white"/>
<path fill-rule="evenodd" clip-rule="evenodd" d="M46.5832 40.0412C47.1196 39.4764 48.0706 39.856 48.0706 40.635V51.2919C48.0706 51.5129 47.9858 51.7254 47.8336 51.8857L25.1994 75.7169C24.663 76.2817 23.7119 75.902 23.7119 75.1231V64.4662C23.7119 64.2452 23.7968 64.0326 23.949 63.8724L46.5832 40.0412ZM46.7773 41.715L25.0053 64.6383V74.0431L46.7773 51.1198V41.715ZM24.8872 64.7626L24.8868 64.7631L24.5742 64.4662L24.8868 64.7631C24.8869 64.763 24.8871 64.7628 24.8872 64.7626Z" fill="white"/>
<path d="M24.7305 57.5952L47.3647 33.764C47.4028 33.7239 47.424 33.6708 47.424 33.6156V22.9587C47.424 22.7639 47.1862 22.669 47.0521 22.8102L24.4179 46.6414C24.3799 46.6815 24.3586 46.7346 24.3586 46.7899V57.4468C24.3586 57.6415 24.5964 57.7364 24.7305 57.5952Z" fill="white"/>
<path fill-rule="evenodd" clip-rule="evenodd" d="M46.5834 22.3649C47.1199 21.8001 48.0709 22.1798 48.0709 22.9587V33.6156C48.0709 33.8366 47.986 34.0492 47.8338 34.2094L25.1996 58.0406C24.6632 58.6054 23.7122 58.2258 23.7122 57.4468V46.7899C23.7122 46.5689 23.797 46.3564 23.9492 46.1961L46.5834 22.3649ZM46.7775 24.0387L25.0055 46.962V56.3668L46.7775 33.4435V24.0387ZM24.8875 47.0864L24.887 47.0868L24.5744 46.7899L24.887 47.0868C24.8872 47.0867 24.8873 47.0865 24.8875 47.0864Z" fill="white"/>
<path d="M24.7305 93.1633L47.3647 69.3321C47.4028 69.2921 47.424 69.2389 47.424 69.1837V58.5268C47.424 58.3321 47.1862 58.2371 47.0521 58.3783L24.4179 82.2096C24.3799 82.2496 24.3586 82.3028 24.3586 82.358V93.0149C24.3586 93.2096 24.5964 93.3045 24.7305 93.1633Z" fill="white"/>
<path fill-rule="evenodd" clip-rule="evenodd" d="M46.5832 57.933C47.1196 57.3682 48.0706 57.7479 48.0706 58.5268V69.1837C48.0706 69.4047 47.9858 69.6173 47.8336 69.7775L25.1994 93.6087C24.663 94.1735 23.7119 93.7939 23.7119 93.0149V82.358C23.7119 82.137 23.7968 81.9245 23.949 81.7642L46.5832 57.933ZM46.7773 59.6068L25.0053 82.5302V91.935L46.7773 69.0116V59.6068ZM24.8872 82.6545L24.8868 82.6549L24.5742 82.358L24.8868 82.655C24.8869 82.6548 24.8871 82.6546 24.8872 82.6545Z" fill="white"/>
<path d="M24.7305 112.349L47.3647 88.5174C47.4028 88.4774 47.424 88.4242 47.424 88.369V77.7121C47.424 77.5174 47.1862 77.4224 47.0521 77.5636L24.4179 101.395C24.3799 101.435 24.3586 101.488 24.3586 101.543V112.2C24.3586 112.395 24.5964 112.49 24.7305 112.349Z" fill="white"/>
<path fill-rule="evenodd" clip-rule="evenodd" d="M46.5832 77.1181C47.1196 76.5533 48.0706 76.9329 48.0706 77.7119V88.3688C48.0706 88.5898 47.9858 88.8023 47.8336 88.9626L25.1994 112.794C24.663 113.359 23.7119 112.979 23.7119 112.2V101.543C23.7119 101.322 23.7968 101.11 23.949 100.949L46.5832 77.1181ZM46.7773 78.7919L25.0053 101.715V111.12L46.7773 88.1967V78.7919ZM24.8872 101.84L24.8868 101.84L24.5742 101.543L24.8868 101.84C24.8869 101.84 24.8871 101.84 24.8872 101.84Z" fill="white"/>
</mask>
<g mask="url(#mask0_37_26)">
<path d="M24.7898 40.095H47.424V82.2377C47.424 88.488 42.3572 93.5548 36.1069 93.5548C29.8566 93.5548 24.7898 88.488 24.7898 82.2377V40.095Z" fill="white"/>
</g>
<path d="M4.52686 15.9517H67.6871V13.796C67.6871 6.17664 61.5104 -7.72476e-05 53.891 -7.72476e-05H18.3229C10.7036 -7.72476e-05 4.52686 6.17664 4.52686 13.796V15.9517Z" fill="white"/>
</svg>
